<svg xmlns="http://www.w3.org/2000/svg" viewBox="0 0 512 512" style="enable-background:new 0 0 512 512" xml:space="preserve"><path d="M489.834 385.299h-41.733V102.505c0-11.152-8.671-20.135-19.823-20.135h-43.851c-11.152 0-20.555 8.983-20.555 20.135v282.794h-62.063v-179.14c0-11.152-8.664-20.349-19.816-20.349h-43.849c-11.152 0-20.564 9.197-20.564 20.349v179.14h-62.063V276.281c0-11.152-8.656-19.543-19.809-19.543h-43.85c-11.152 0-20.57 8.39-20.57 19.543v109.017H22.166C9.924 385.299 0 395.223 0 407.464s9.924 22.166 22.166 22.166h467.669c12.241 0 22.166-9.924 22.166-22.166s-9.924-22.165-22.167-22.165z"/></svg>