<svg xmlns="http://www.w3.org/2000/svg" viewBox="0 0 512 512" style="enable-background:new 0 0 512 512" xml:space="preserve"><path d="M489.579 254.766c-12.942-16.932-30.829-29.887-50.839-36.933-.828-48.454-40.501-87.618-89.148-87.618a88.53 88.53 0 0 0-22.647 2.958c-12.102-15.076-27.37-27.615-44.441-36.457-19.642-10.173-40.881-15.331-63.127-15.331-74.705 0-135.736 59.676-137.931 133.859C33.885 227.82 0 271.349 0 321.107c0 60.383 49.125 109.508 109.508 109.508h292.983C462.875 430.615 512 381.49 512 321.107c0-24.211-7.754-47.151-22.421-66.341zm-87.088 160.295H109.508c-51.806 0-93.953-42.147-93.953-93.953 0-44.549 31.647-83.274 75.248-92.079l6.342-1.281-.106-6.47a25.09 25.09 0 0 0-.069-1.38c-.012-.173-.031-.344-.031-.52 0-67.512 54.925-122.437 122.436-122.437 39.135 0 75.005 18.162 98.411 49.828l3.349 4.53 5.348-1.769c7.542-2.494 15.317-3.759 23.108-3.759 40.587 0 73.606 33.019 73.606 73.607 0 .645-.05 1.382-.103 2.164a95.1 95.1 0 0 0-.093 1.518l-.303 6.145 5.911 1.709c19.171 5.544 36.435 17.369 48.61 33.297 12.577 16.453 19.224 36.127 19.224 56.895.002 51.807-42.146 93.955-93.952 93.955z"/><path d="M135.62 193.401h15.555c0-26.66 21.69-48.35 48.351-48.35v-15.555c-35.237-.001-63.906 28.667-63.906 63.905z"/></svg>