<svg xmlns="http://www.w3.org/2000/svg" viewBox="0 0 480 480" style="enable-background:new 0 0 480 480" xml:space="preserve"><path d="M409.706 70.294C364.375 24.964 304.106 0 240 0S115.625 24.964 70.294 70.294 0 175.894 0 240s24.964 124.376 70.294 169.706S175.894 480 240 480s124.375-24.964 169.706-70.294S480 304.106 480 240s-24.964-124.376-70.294-169.706zm39.867 102.472h-101.89a127.968 127.968 0 0 0-40.448-40.448V30.427c32.958 10.533 63.159 28.839 88.329 54.009 25.17 25.171 43.476 55.372 54.009 88.33zM460 240c0 16.079-1.725 31.891-5.065 47.234h-97.061c5.875-14.609 9.116-30.549 9.116-47.234s-3.241-32.626-9.116-47.234h97.061A221.912 221.912 0 0 1 460 240zM240 346.99c-58.995 0-106.991-47.995-106.991-106.99S181.005 133.01 240 133.01 346.99 181.005 346.99 240 298.995 346.99 240 346.99zM20 240c0-16.079 1.725-31.891 5.065-47.234h97.06c-5.875 14.609-9.116 30.549-9.116 47.234s3.241 32.626 9.116 47.234h-97.06A221.912 221.912 0 0 1 20 240zM287.234 25.065v97.061c-14.609-5.875-30.549-9.116-47.234-9.116s-32.626 3.241-47.234 9.116V25.065C208.109 21.725 223.921 20 240 20s31.891 1.725 47.234 5.065zM84.437 84.437c25.171-25.17 55.371-43.476 88.329-54.009v101.89a127.992 127.992 0 0 0-40.449 40.448H30.427c10.533-32.958 28.839-63.159 54.01-88.329zm-54.01 222.797h101.89a127.981 127.981 0 0 0 40.449 40.448v101.89c-32.958-10.533-63.159-28.839-88.329-54.009-25.171-25.17-43.477-55.371-54.01-88.329zm162.339 147.701v-97.061c14.609 5.875 30.549 9.116 47.234 9.116s32.626-3.241 47.234-9.116v97.061C271.891 458.275 256.079 460 240 460s-31.891-1.725-47.234-5.065zm202.797-59.372c-25.171 25.17-55.371 43.476-88.329 54.009v-101.89a127.978 127.978 0 0 0 40.448-40.448h101.89c-10.532 32.958-28.838 63.159-54.009 88.329z"/></svg>