<svg xmlns="http://www.w3.org/2000/svg" viewBox="0 0 415 415" style="enable-background:new 0 0 415 415" xml:space="preserve"><path d="M325.662 3.768A7.498 7.498 0 0 0 319.157 0H164.555a7.501 7.501 0 0 0-7.107 5.102L91.19 201.421a7.502 7.502 0 0 0 7.107 9.898h62.812L88.817 404.876a7.5 7.5 0 0 0 12.779 7.437l201.228-240.49a7.5 7.5 0 0 0-5.752-12.313h-58.094l86.654-148.224a7.499 7.499 0 0 0 .03-7.518zM219.429 163.223a7.499 7.499 0 0 0-.03 7.518 7.498 7.498 0 0 0 6.505 3.768h55.111L118.189 369.107l60.754-162.664a7.499 7.499 0 0 0-7.026-10.124h-63.173L169.939 15h136.145l-86.655 148.223z"/></svg>