<svg xmlns="http://www.w3.org/2000/svg" viewBox="0 0 470.208 470.208" style="enable-background:new 0 0 470.208 470.208" xml:space="preserve"><path d="M467.6 309.093c-2.6-2.8-6.6-3.9-10.3-2.8-19.2 5.8-40.8 8.8-62.6 8.8-123.1 0-223.2-98.3-223.2-219.1 0-26.8 5.1-53.8 15.7-82.4 1.3-3.6.5-7.5-2.1-10.3-2.6-2.8-6.5-3.8-10.1-2.8-50.8 14.7-94.5 44.5-126.3 86.4-31.9 41.9-48.7 91.7-48.7 144.1 0 131.8 109.5 239.1 244.2 239.1 48.7 0 95.7-14.2 136.3-41.2 40.4-27 71.2-64.8 89-109.3 1.4-3.6.7-7.7-1.9-10.5zm-223.4 141c-123.6 0-224.2-98.3-224.2-219.1 0-90.6 57.4-172.3 141.9-205-7.1 23.8-10.5 46.9-10.6 70 0 64 25.3 124.1 71.3 169.2 45.9 45.1 106.9 69.9 171.9 69.9 16.3 0 32.5-1.6 47.8-4.6-37.3 72.3-114.5 119.6-198.1 119.6z"/></svg>