<svg xmlns="http://www.w3.org/2000/svg" viewBox="0 0 65.469 65.469" style="enable-background:new 0 0 65.469 65.469" xml:space="preserve"><path d="M50.504 23.929h-.603v-6.762C49.902 7.701 42.202 0 32.736 0S15.569 7.701 15.569 17.167v6.762h-.604c-5.401 0-9.796 4.395-9.796 9.797v21.946c0 5.402 4.395 9.797 9.796 9.797h35.54c5.401 0 9.796-4.395 9.796-9.797V33.726c-.001-5.402-4.396-9.797-9.797-9.797zm-28.935-6.762C21.569 11.01 26.577 6 32.736 6c6.157 0 11.166 5.009 11.166 11.167v6.762H21.569v-6.762zM54.3 55.673a3.8 3.8 0 0 1-3.796 3.797H14.965a3.8 3.8 0 0 1-3.796-3.797V33.726a3.8 3.8 0 0 1 3.796-3.797h35.54a3.8 3.8 0 0 1 3.796 3.797L54.3 55.673z"/><path d="M32.734 37.163a6.014 6.014 0 0 0-6.014 6.014 6.008 6.008 0 0 0 3.014 5.207v6.686h6v-6.686a6.008 6.008 0 0 0 3.014-5.207 6.014 6.014 0 0 0-6.014-6.014z"/></svg>